<?xml version="1.0" standalone="no"?>
<!DOCTYPE svg PUBLIC "-//W3C//DTD SVG 20010904//EN"
 "http://www.w3.org/TR/2001/REC-SVG-20010904/DTD/svg10.dtd">
<svg version="1.0" xmlns="http://www.w3.org/2000/svg"
 width="700.000000pt" height="700.000000pt" viewBox="0 0 700.000000 700.000000"
 preserveAspectRatio="xMidYMid meet">
<metadata>
Created by potrace 1.14, written by Peter Selinger 2001-2017
</metadata>
<g transform="translate(0.000000,700.000000) scale(0.100000,-0.100000)"
fill="#000000" stroke="none">
<path d="M3205 6989 c-599 -51 -1176 -257 -1674 -596 -684 -466 -1188 -1168
-1405 -1958 -77 -283 -114 -533 -123 -835 -28 -970 334 -1883 1018 -2569 1260
-1265 3266 -1380 4659 -268 670 535 1127 1304 1269 2137 37 217 46 331 46 600
0 426 -49 733 -177 1115 -390 1162 -1373 2045 -2568 2304 -332 73 -715 98
-1045 70z m952 -2371 c-2 -7 -211 -525 -463 -1150 l-457 -1138 -198 0 -198 0
120 298 c66 163 267 661 446 1106 178 444 333 828 343 852 l19 44 197 0 c153
0 195 -3 191 -12z m-1657 -660 l0 -183 -414 -175 c-228 -96 -412 -178 -408
-182 4 -3 189 -83 411 -177 222 -93 405 -172 408 -174 2 -2 2 -85 1 -184 l-3
-180 -638 271 -637 271 2 178 3 178 630 269 c347 148 633 270 638 270 4 0 7
-82 7 -182z m2645 -87 l630 -269 3 -179 2 -179 -632 -269 c-348 -147 -636
-270 -640 -272 -5 -2 -8 79 -8 180 l0 183 411 174 c226 96 412 177 414 180 2
3 -183 84 -410 180 l-414 175 -1 183 c0 100 3 182 8 182 4 0 291 -121 637
-269z"/>
</g>
</svg>
