<?xml version="1.0" encoding="UTF-8"?>
<svg xmlns="http://www.w3.org/2000/svg" xmlns:xlink="http://www.w3.org/1999/xlink" width="14px" height="9px" viewBox="0 0 14 9" version="1.1">
<defs>
<clipPath id="clip1">
  <path d="M 0 0 L 14 0 L 14 8.835938 L 0 8.835938 Z M 0 0 "/>
</clipPath>
</defs>
<g id="surface1">
<g clip-path="url(#clip1)" clip-rule="nonzero">
<path style=" stroke:none;fill-rule:evenodd;fill:rgb(21.960784%,74.117647%,97.254902%);fill-opacity:1;" d="M 7 0 C 5.132812 0 3.964844 0.980469 3.5 2.945312 C 4.199219 1.964844 5.015625 1.59375 5.949219 1.839844 C 6.484375 1.980469 6.863281 2.386719 7.285156 2.835938 C 7.96875 3.570312 8.765625 4.417969 10.5 4.417969 C 12.367188 4.417969 13.535156 3.4375 14 1.472656 C 13.300781 2.453125 12.484375 2.824219 11.550781 2.578125 C 11.015625 2.4375 10.636719 2.03125 10.214844 1.582031 C 9.53125 0.847656 8.734375 0 7 0 Z M 3.5 4.417969 C 1.632812 4.417969 0.464844 5.398438 0 7.363281 C 0.699219 6.382812 1.515625 6.011719 2.449219 6.257812 C 2.984375 6.398438 3.363281 6.804688 3.785156 7.253906 C 4.46875 7.988281 5.265625 8.835938 7 8.835938 C 8.867188 8.835938 10.035156 7.855469 10.5 5.890625 C 9.800781 6.871094 8.984375 7.242188 8.050781 6.996094 C 7.515625 6.855469 7.136719 6.449219 6.714844 6 C 6.03125 5.265625 5.234375 4.417969 3.5 4.417969 Z M 3.5 4.417969 "/>
</g>
</g>
</svg>
