<?xml version="1.0" encoding="UTF-8"?>
<svg xmlns="http://www.w3.org/2000/svg" xmlns:xlink="http://www.w3.org/1999/xlink" width="14px" height="14px" viewBox="0 0 14 14" version="1.1">
<g id="surface1">
<path style=" stroke:none;fill-rule:nonzero;fill:rgb(19.215686%,47.058824%,77.647059%);fill-opacity:1;" d="M 1.367188 0 L 12.632812 0 C 13.386719 0 14 0.613281 14 1.367188 L 14 12.632812 C 14 13.386719 13.386719 14 12.632812 14 L 1.367188 14 C 0.613281 14 0 13.386719 0 12.632812 L 0 1.367188 C 0 0.613281 0.613281 0 1.367188 0 Z M 1.367188 0 "/>
<path style=" stroke:none;fill-rule:nonzero;fill:rgb(19.215686%,47.058824%,77.647059%);fill-opacity:1;" d="M 1.367188 0 L 12.632812 0 C 13.386719 0 14 0.613281 14 1.367188 L 14 12.632812 C 14 13.386719 13.386719 14 12.632812 14 L 1.367188 14 C 0.613281 14 0 13.386719 0 12.632812 L 0 1.367188 C 0 0.613281 0.613281 0 1.367188 0 Z M 1.367188 0 "/>
<path style=" stroke:none;fill-rule:evenodd;fill:rgb(100%,100%,100%);fill-opacity:1;" d="M 8.667969 11.140625 L 8.667969 12.507812 C 8.890625 12.625 9.152344 12.707031 9.457031 12.765625 C 9.757812 12.824219 10.078125 12.851562 10.417969 12.851562 C 10.746094 12.851562 11.054688 12.820312 11.351562 12.757812 C 11.648438 12.695312 11.90625 12.589844 12.128906 12.449219 C 12.351562 12.304688 12.527344 12.113281 12.65625 11.882812 C 12.785156 11.648438 12.851562 11.363281 12.851562 11.019531 C 12.851562 10.773438 12.816406 10.554688 12.742188 10.367188 C 12.667969 10.179688 12.558594 10.015625 12.417969 9.871094 C 12.28125 9.726562 12.113281 9.59375 11.917969 9.480469 C 11.722656 9.363281 11.5 9.253906 11.253906 9.152344 C 11.074219 9.078125 10.914062 9.003906 10.773438 8.933594 C 10.628906 8.867188 10.507812 8.792969 10.40625 8.722656 C 10.308594 8.648438 10.230469 8.570312 10.175781 8.492188 C 10.121094 8.410156 10.09375 8.316406 10.09375 8.214844 C 10.09375 8.121094 10.121094 8.035156 10.167969 7.960938 C 10.21875 7.882812 10.285156 7.820312 10.375 7.765625 C 10.460938 7.710938 10.570312 7.667969 10.699219 7.640625 C 10.828125 7.609375 10.96875 7.59375 11.128906 7.59375 C 11.242188 7.59375 11.363281 7.601562 11.488281 7.621094 C 11.617188 7.636719 11.742188 7.664062 11.871094 7.699219 C 12 7.734375 12.125 7.78125 12.246094 7.832031 C 12.367188 7.886719 12.480469 7.949219 12.582031 8.023438 L 12.582031 6.742188 C 12.375 6.664062 12.144531 6.605469 11.898438 6.566406 C 11.652344 6.527344 11.371094 6.507812 11.050781 6.507812 C 10.726562 6.507812 10.417969 6.542969 10.125 6.613281 C 9.835938 6.683594 9.578125 6.792969 9.355469 6.941406 C 9.136719 7.089844 8.960938 7.277344 8.832031 7.507812 C 8.703125 7.734375 8.640625 8.011719 8.640625 8.332031 C 8.640625 8.738281 8.757812 9.085938 8.992188 9.375 C 9.230469 9.660156 9.585938 9.90625 10.066406 10.105469 C 10.253906 10.183594 10.429688 10.257812 10.59375 10.332031 C 10.753906 10.40625 10.894531 10.484375 11.011719 10.5625 C 11.132812 10.644531 11.226562 10.730469 11.292969 10.824219 C 11.363281 10.917969 11.398438 11.023438 11.398438 11.144531 C 11.398438 11.234375 11.375 11.316406 11.332031 11.390625 C 11.289062 11.464844 11.226562 11.53125 11.136719 11.585938 C 11.050781 11.644531 10.941406 11.6875 10.8125 11.71875 C 10.683594 11.75 10.53125 11.765625 10.355469 11.765625 C 10.058594 11.765625 9.765625 11.714844 9.476562 11.609375 C 9.183594 11.503906 8.914062 11.347656 8.667969 11.140625 Z M 6.363281 7.769531 L 8.121094 7.769531 L 8.121094 6.644531 L 3.226562 6.644531 L 3.226562 7.769531 L 4.972656 7.769531 L 4.972656 12.769531 L 6.363281 12.769531 Z M 6.363281 7.769531 "/>
</g>
</svg>
